<?xml version="1.0" encoding="UTF-8" standalone="no"?>
<!-- Creator: CorelDRAW X6 -->

<svg
   xmlns:dc="http://purl.org/dc/elements/1.1/"
   xmlns:cc="http://creativecommons.org/ns#"
   xmlns:rdf="http://www.w3.org/1999/02/22-rdf-syntax-ns#"
   xmlns:svg="http://www.w3.org/2000/svg"
   xmlns="http://www.w3.org/2000/svg"
   xmlns:xlink="http://www.w3.org/1999/xlink"
   xmlns:sodipodi="http://sodipodi.sourceforge.net/DTD/sodipodi-0.dtd"
   xmlns:inkscape="http://www.inkscape.org/namespaces/inkscape"
   xml:space="preserve"
   width="800"
   height="600"
   version="1.1"
   style="fill-rule:evenodd"
   viewBox="0 0 17631.435 13224.477"
   id="svg2"
   inkscape:version="0.48.5 r10040"
   sodipodi:docname="welcome.svg"
   inkscape:export-filename="/Users/thomas/git/GingerbreadGame/art/svg/welcome.png"
   inkscape:export-xdpi="90"
   inkscape:export-ydpi="90"><metadata
     id="metadata2290"><rdf:RDF><cc:Work
         rdf:about=""><dc:format>image/svg+xml</dc:format><dc:type
           rdf:resource="http://purl.org/dc/dcmitype/StillImage" /><dc:title></dc:title></cc:Work></rdf:RDF></metadata><sodipodi:namedview
     pagecolor="#ffffff"
     bordercolor="#666666"
     borderopacity="1"
     objecttolerance="10"
     gridtolerance="10"
     guidetolerance="10"
     inkscape:pageopacity="0"
     inkscape:pageshadow="2"
     inkscape:window-width="1413"
     inkscape:window-height="1306"
     id="namedview2288"
     showgrid="false"
     inkscape:zoom="1.52625"
     inkscape:cx="400"
     inkscape:cy="300"
     inkscape:window-x="1148"
     inkscape:window-y="1"
     inkscape:window-maximized="0"
     inkscape:current-layer="svg2" /><defs
     id="defs4"><linearGradient
       id="linearGradient4996"><stop
         style="stop-color:#ffd21f;stop-opacity:1;"
         offset="0"
         id="stop4998" /><stop
         id="stop5004"
         offset="0.49000001"
         style="stop-color:#fff11f;stop-opacity:0.98431373;" /><stop
         style="stop-color:#ffd21f;stop-opacity:1;"
         offset="0.50999999"
         id="stop5006" /><stop
         style="stop-color:#fff11f;stop-opacity:0.98260868;"
         offset="1"
         id="stop5000" /></linearGradient><style
       type="text/css"
       id="style6">
   
    .str0 {stroke:#945E36;stroke-width:15.6189}
    .fil11 {fill:none}
    .fil30 {fill:#7688A1}
    .fil12 {fill:black}
    .fil45 {fill:#166629}
    .fil46 {fill:#1C8334}
    .fil55 {fill:#1D3363}
    .fil53 {fill:#233F7A}
    .fil40 {fill:#24A444}
    .fil60 {fill:#274687}
    .fil47 {fill:#279747}
    .fil39 {fill:#27BEFF}
    .fil41 {fill:#29C14F}
    .fil54 {fill:#324F8E}
    .fil14 {fill:#331F0E}
    .fil56 {fill:#36569B}
    .fil38 {fill:#37C3FF}
    .fil42 {fill:#37D561}
    .fil5 {fill:#3A210F}
    .fil20 {fill:#3B9CFB}
    .fil57 {fill:#3E62B0}
    .fil3 {fill:#3F2411}
    .fil52 {fill:#4364AC}
    .fil4 {fill:#452712}
    .fil48 {fill:#4AA363}
    .fil58 {fill:#4D6FC1}
    .fil51 {fill:#5271BC}
    .fil0 {fill:#573217}
    .fil36 {fill:#59CDFF}
    .fil29 {fill:#5CBDF4}
    .fil10 {fill:#633E25}
    .fil59 {fill:#6480CA}
    .fil50 {fill:#65B4FF}
    .fil43 {fill:#66E186}
    .fil2 {fill:#6C4227}
    .fil37 {fill:#78D7FF}
    .fil8 {fill:#7A4D2E}
    .fil16 {fill:#82D2FF}
    .fil1 {fill:#885639}
    .fil9 {fill:#945E36}
    .fil17 {fill:#9FE1FF}
    .fil6 {fill:#AE703E}
    .fil25 {fill:#AFD1EC}
    .fil27 {fill:#B4B3B8}
    .fil34 {fill:#BF4A23}
    .fil13 {fill:#C07E4C}
    .fil23 {fill:#D5F1FF}
    .fil33 {fill:#D9572B}
    .fil31 {fill:#D9F1FF}
    .fil26 {fill:#DFDDDE}
    .fil28 {fill:#E7E5E6}
    .fil22 {fill:#F5FAFF}
    .fil35 {fill:#FF6633}
    .fil32 {fill:#FF99CC}
    .fil24 {fill:white}
    .fil7 {fill:#633E25;fill-rule:nonzero}
    .fil44 {fill:black;fill-opacity:0.101961}
    .fil21 {fill:black;fill-opacity:0.200000}
    .fil49 {fill:url(#id2)}
    .fil18 {fill:url(#id3)}
    .fil15 {fill:url(#id4)}
    .fil19 {fill:url(#id5)}
   
  </style><clipPath
       id="id0"><path
         d="m 5177,387 478,0 0,479 -478,0 0,-479 z"
         id="path9"
         inkscape:connector-curvature="0" /></clipPath><clipPath
       id="id1"><path
         d="m 6104,366 522,0 0,521 -522,0 0,-521 z"
         id="path12"
         inkscape:connector-curvature="0" /></clipPath><linearGradient
       id="id2"
       gradientUnits="userSpaceOnUse"
       x1="5951.6602"
       y1="4182.79"
       x2="5951.6602"
       y2="10088.6"><stop
         offset="0"
         style="stop-color:#234282"
         id="stop15" /><stop
         offset="1"
         style="stop-color:#7295E8"
         id="stop17" /></linearGradient><linearGradient
       id="id3"
       gradientUnits="userSpaceOnUse"
       x1="4098.5601"
       y1="357.61801"
       x2="4098.5601"
       y2="796.47803"><stop
         offset="0"
         style="stop-color:#6BCBF1"
         id="stop20" /><stop
         offset="1"
         style="stop-color:#3B9CFB"
         id="stop22" /></linearGradient><linearGradient
       id="id4"
       gradientUnits="userSpaceOnUse"
       xlink:href="#id3"
       x1="4098.5801"
       y1="257.90701"
       x2="4098.5801"
       y2="688.00403" /><linearGradient
       id="id5"
       gradientUnits="userSpaceOnUse"
       xlink:href="#id3"
       x1="4098.5801"
       y1="514.36102"
       x2="4098.5801"
       y2="856.68103" /><linearGradient
       inkscape:collect="always"
       xlink:href="#id3"
       id="linearGradient5267"
       gradientUnits="userSpaceOnUse"
       x1="4098.5601"
       y1="357.61801"
       x2="4098.5601"
       y2="796.47803" /><linearGradient
       inkscape:collect="always"
       xlink:href="#linearGradient4996"
       id="linearGradient5002"
       x1="7245.0674"
       y1="7651.3643"
       x2="7245.0674"
       y2="4263.2734"
       gradientUnits="userSpaceOnUse" /><linearGradient
       inkscape:collect="always"
       xlink:href="#linearGradient4996"
       id="linearGradient5042"
       gradientUnits="userSpaceOnUse"
       x1="7245.0674"
       y1="7651.3643"
       x2="7245.0674"
       y2="4263.2734" /><linearGradient
       inkscape:collect="always"
       xlink:href="#linearGradient4996"
       id="linearGradient5044"
       gradientUnits="userSpaceOnUse"
       x1="7245.0674"
       y1="7651.3643"
       x2="7245.0674"
       y2="4263.2734" /><linearGradient
       inkscape:collect="always"
       xlink:href="#linearGradient4996"
       id="linearGradient5069"
       gradientUnits="userSpaceOnUse"
       x1="7245.0674"
       y1="7651.3643"
       x2="7245.0674"
       y2="4263.2734"
       gradientTransform="translate(1198.6149,-1458.5555)" /></defs><g
     id="_845942128"
     transform="matrix(2.2391597,0,0,2.2391597,-0.6005,-9366.4052)"><g
       id="g1984"><polygon
         style="fill:url(#id2)"
         id="polygon1986"
         points="11902,10089 11902,4183 1,4183 1,10089 "
         class="fil49" /><polygon
         style="fill:#65b4ff"
         id="polygon1988"
         points="3269,5329 3232,5442 3197,5330 3079,5331 3175,5263 3138,5150 3232,5220 3327,5150 3290,5262 3386,5331 "
         class="fil50" /><polygon
         style="fill:#65b4ff"
         id="polygon1992"
         points="4498,6154 4456,6285 4415,6155 4277,6155 4389,6076 4345,5945 4455,6026 4567,5945 4523,6074 4635,6155 "
         class="fil50" /><polygon
         style="fill:#65b4ff"
         id="polygon1994"
         points="4432,4736 4406,4817 4381,4736 4296,4737 4364,4688 4338,4607 4405,4657 4474,4607 4447,4687 4517,4737 "
         class="fil50" /><polygon
         style="fill:#65b4ff"
         id="polygon1996"
         points="9691,6612 9660,6706 9631,6613 9533,6613 9612,6557 9582,6463 9660,6521 9739,6463 9708,6556 9788,6613 "
         class="fil50" /><polygon
         style="fill:#65b4ff"
         id="polygon2000"
         points="6556,4597 6600,4734 6642,4598 6786,4599 6670,4516 6715,4380 6601,4465 6485,4380 6530,4515 6414,4599 "
         class="fil50" /><polygon
         style="fill:#65b4ff"
         id="polygon2002"
         points="923,6318 945,6387 967,6318 1039,6318 981,6277 1003,6208 946,6251 887,6208 910,6276 851,6318 "
         class="fil50" /><polygon
         style="fill:#65b4ff"
         id="polygon2004"
         points="829,4932 872,5069 915,4933 1059,4934 943,4851 988,4715 873,4800 757,4715 803,4850 686,4934 "
         class="fil50" /><polygon
         style="fill:#65b4ff"
         id="polygon2006"
         points="7413,6138 7439,6219 7464,6138 7550,6139 7481,6090 7507,6009 7440,6059 7371,6009 7398,6089 7329,6139 "
         class="fil50" /><polygon
         style="fill:#65b4ff"
         id="polygon2008"
         points="403,4710 393,4741 383,4710 351,4710 377,4692 367,4661 393,4680 419,4661 409,4691 435,4710 "
         class="fil50" /></g><g
       id="g2010"><g
         id="g2026" /><g
         id="g2034" /></g><path
       style="fill:#4364ac"
       inkscape:connector-curvature="0"
       id="path2042"
       d="m 0,7006 c 1472,0 1799,302 2334,252 660,-63 921,-545 1627,-611 707,-67 1310,661 2055,661 745,0 968,-777 1475,-786 508,-9 846,1276 1747,712 900,-564 1543,-228 2664,-228 l 0,2546 L 0,9552 0,7006 z"
       class="fil52" /><g
       id="g2044"><path
         style="fill:#233f7a"
         inkscape:connector-curvature="0"
         id="path2046"
         d="m 0,10089 11902,0 0,-2119 C 7631,8498 4050,6483 0,7970 l 0,2119 z"
         class="fil53" /><path
         style="fill:#324f8e"
         inkscape:connector-curvature="0"
         id="path2048"
         d="m 11902,8090 0,-120 C 7631,8498 4050,6483 0,7970 l 0,120 c 4050,-1487 7631,528 11902,0 z"
         class="fil54" /><path
         style="fill:#233f7a"
         inkscape:connector-curvature="0"
         id="path2062"
         d="m 8104,7703 c 27,15 57,29 89,42 -58,32 -97,43 -148,20 9,7 20,15 33,24 -16,0 -32,0 -46,-1 11,30 36,63 99,113 -67,0 -121,14 -184,-61 -3,83 1,93 54,169 -65,-8 -106,-27 -135,-58 l 0,215 -145,0 0,-186 c -31,13 -68,19 -106,29 43,-68 52,-101 46,-149 -57,83 -109,74 -218,72 58,-40 85,-72 87,-128 -78,70 -103,68 -179,43 73,-30 73,-57 84,-99 -19,21 -72,16 -142,-2 47,0 113,-37 190,-92 7,-13 13,-28 19,-46 -56,32 -87,31 -151,7 50,-21 97,-49 141,-82 -16,2 -33,2 -51,2 48,-20 64,-33 90,-76 -11,3 -22,5 -35,7 5,-3 9,-7 14,-10 -36,17 -69,15 -110,4 42,0 112,-45 191,-104 6,-13 11,-27 15,-42 -38,28 -80,38 -127,34 112,-57 194,-184 292,-276 117,113 256,266 316,266 -43,14 -75,13 -117,-28 11,23 19,40 27,53 52,43 107,82 169,107 -58,4 -112,-6 -160,-34 7,20 16,38 28,56 75,51 139,87 181,86 -63,17 -77,20 -116,15 44,76 38,69 89,96 -31,7 -57,14 -84,14 z"
         class="fil53" /><path
         style="fill:#233f7a"
         inkscape:connector-curvature="0"
         id="path2072"
         d="m 3142,7455 c -29,15 -59,30 -92,44 60,32 100,43 153,19 -10,8 -21,16 -35,25 17,0 33,0 48,0 -11,30 -38,65 -103,115 70,0 125,15 190,-62 3,86 -1,95 -56,173 67,-8 109,-27 139,-59 l 0,221 150,0 0,-191 c 31,13 69,19 108,30 -44,-70 -53,-104 -47,-154 59,85 112,76 224,74 -60,-40 -88,-74 -90,-131 80,72 107,69 185,44 -76,-31 -76,-59 -87,-102 20,21 74,17 146,-2 -49,0 -116,-38 -195,-94 -7,-14 -13,-29 -19,-48 57,33 89,32 155,7 -52,-21 -100,-50 -145,-83 16,1 33,1 52,1 -49,-21 -66,-34 -93,-77 11,2 24,4 37,7 -5,-4 -10,-8 -14,-11 36,17 70,15 112,4 -43,0 -115,-46 -196,-107 -7,-14 -12,-28 -16,-43 39,29 83,39 130,35 -115,-59 -199,-189 -299,-283 -121,116 -263,273 -325,273 44,15 77,13 120,-30 -11,25 -19,42 -28,56 -53,44 -110,84 -173,110 59,4 115,-7 164,-36 -7,21 -16,40 -29,58 -77,53 -143,89 -186,89 65,17 79,20 120,15 -46,78 -40,71 -92,98 32,8 59,15 87,15 z"
         class="fil53" /><path
         style="fill:#233f7a"
         inkscape:connector-curvature="0"
         id="path2074"
         d="m 3786,7325 c -28,15 -57,30 -90,43 59,32 98,42 149,19 -9,7 -20,15 -34,24 17,0 32,0 47,0 -11,29 -37,63 -100,112 67,0 121,14 185,-60 3,83 -1,92 -55,168 65,-7 106,-27 135,-58 l 0,215 146,0 0,-185 c 31,12 67,19 106,29 -43,-69 -52,-102 -46,-150 57,83 109,74 217,72 -58,-39 -85,-72 -87,-128 78,70 104,68 180,43 -74,-30 -74,-57 -84,-98 19,20 71,16 141,-3 -47,0 -113,-37 -189,-91 -7,-14 -13,-29 -19,-47 55,33 87,31 150,7 -50,-21 -96,-49 -140,-81 15,1 32,1 51,1 -49,-20 -64,-33 -91,-75 11,2 23,5 36,7 -5,-4 -10,-7 -14,-11 36,17 68,15 109,4 -41,0 -111,-45 -191,-104 -6,-13 -11,-27 -15,-42 38,28 81,38 127,35 -112,-58 -194,-184 -291,-276 -118,113 -256,266 -316,265 43,15 74,13 117,-28 -11,24 -20,41 -28,54 -52,43 -107,81 -168,107 58,3 111,-7 159,-35 -6,20 -16,39 -28,56 -74,52 -139,87 -181,87 63,17 77,19 117,14 -45,77 -39,69 -89,96 30,8 57,15 84,14 z"
         class="fil53" /><path
         style="fill:#233f7a"
         inkscape:connector-curvature="0"
         id="path2082"
         d="m 757,7662 c -24,12 -48,25 -76,36 50,27 83,36 126,16 -8,6 -17,13 -28,20 14,1 27,1 39,0 -9,25 -31,53 -85,95 58,0 103,12 157,-51 3,70 -1,78 -46,143 55,-7 89,-23 114,-49 l 0,182 123,0 0,-158 c 27,11 57,17 90,25 -36,-58 -44,-86 -39,-127 48,71 92,63 184,62 -49,-34 -72,-61 -74,-109 66,60 88,58 153,37 -63,-26 -63,-49 -72,-84 17,17 61,14 120,-2 -40,0 -95,-31 -160,-77 -6,-12 -11,-24 -16,-40 47,28 73,27 127,6 -42,-17 -82,-41 -119,-69 13,1 27,1 43,1 -41,-17 -54,-27 -77,-63 10,2 20,4 31,5 -4,-3 -8,-6 -12,-9 30,15 58,13 92,4 -34,0 -94,-38 -161,-88 -5,-11 -10,-23 -13,-36 32,24 68,33 108,29 -95,-48 -165,-155 -247,-233 -100,95 -217,225 -268,225 37,12 64,11 99,-24 -9,20 -16,34 -23,45 -44,37 -90,69 -143,91 49,3 95,-6 136,-29 -6,16 -14,32 -24,47 -63,43 -118,73 -154,73 54,15 66,17 99,13 -38,64 -33,58 -75,81 26,6 48,12 71,12 z"
         class="fil53" /><path
         style="fill:#233f7a"
         inkscape:connector-curvature="0"
         id="path2084"
         d="m 165,7675 c -24,13 -49,25 -76,37 49,27 82,35 126,16 -8,6 -17,12 -29,20 14,0 27,0 40,0 -10,25 -31,53 -85,95 57,0 103,12 156,-51 3,70 0,78 -45,142 54,-6 89,-22 114,-48 l 0,181 123,0 0,-157 c 26,11 57,16 90,25 -37,-58 -44,-86 -39,-127 48,70 92,63 184,62 -49,-34 -72,-61 -74,-109 66,59 88,58 152,37 -62,-26 -62,-49 -71,-84 16,17 60,14 120,-2 -40,0 -96,-31 -161,-78 -6,-11 -11,-24 -16,-39 47,27 74,26 128,6 -43,-18 -82,-42 -119,-69 13,1 27,1 43,1 -41,-17 -54,-28 -77,-64 10,2 20,4 30,6 -4,-3 -8,-6 -11,-9 30,14 58,13 92,4 -35,0 -94,-38 -161,-88 -6,-12 -10,-23 -13,-36 32,24 68,32 107,29 -95,-49 -164,-156 -246,-234 -100,96 -217,226 -268,225 36,13 63,11 99,-24 -9,21 -16,35 -23,46 -44,36 -91,69 -143,91 49,3 95,-6 135,-29 -5,16 -13,32 -24,47 -63,43 -117,73 -153,73 53,14 66,17 99,12 -38,65 -33,59 -76,82 26,6 49,12 72,11 z"
         class="fil53" /></g><g
       id="g2086"><g
         id="g2088"><g
           id="g2092" /></g><g
         id="g2102"><g
           id="g2106" /></g><g
         id="g2116"><g
           id="g2120" /></g><g
         id="g2130"><rect
           style="fill:#1d3363"
           id="rect2132"
           height="633"
           width="238"
           y="8322"
           x="1670"
           class="fil55" /><g
           id="g2134"><path
             style="fill:#36569b"
             inkscape:connector-curvature="0"
             id="path2136"
             d="m 1847,7774 c -257,193 -414,373 -711,494 107,59 175,73 276,14 -7,65 -31,127 -175,240 110,0 198,23 301,-99 6,136 -2,152 -88,275 191,-22 256,-107 310,-253 36,212 169,215 321,254 -71,-111 -85,-165 -75,-244 93,136 178,121 355,118 -95,-65 -139,-117 -142,-209 127,114 169,111 293,70 -120,-49 -120,-93 -137,-161 31,33 116,26 231,-4 -159,0 -447,-258 -759,-495 z"
             class="fil56" /><path
             style="fill:#3e62b0"
             inkscape:connector-curvature="0"
             id="path2138"
             d="m 1820,7534 c 231,174 426,412 692,521 -105,40 -156,41 -247,-12 39,116 75,156 208,234 -173,-23 -244,2 -336,-107 -5,122 -31,156 73,270 -171,-66 -253,-110 -301,-240 -33,189 -183,243 -319,278 75,-103 99,-150 71,-271 -84,121 -178,134 -337,132 85,-58 112,-75 122,-216 -115,103 -193,79 -301,53 82,-44 72,-32 145,-157 -64,8 -88,4 -191,-24 143,1 441,-248 721,-461 z"
             class="fil57" /><path
             style="fill:#4d6fc1"
             inkscape:connector-curvature="0"
             id="path2140"
             d="m 1779,7368 c -199,150 -368,357 -599,451 95,6 183,-10 262,-56 -34,100 -113,181 -228,249 150,-20 245,-45 326,-140 4,106 -8,182 -98,281 148,-57 228,-151 270,-263 28,164 149,265 267,296 -65,-89 -101,-184 -76,-289 72,105 169,170 307,168 -74,-50 -134,-117 -142,-239 99,89 173,100 297,98 -94,-39 -113,-61 -175,-168 87,67 152,70 241,46 -124,0 -409,-250 -652,-434 z"
             class="fil58" /><path
             style="fill:#6480ca"
             inkscape:connector-curvature="0"
             id="path2142"
             d="m 1826,7168 c 159,151 293,357 476,452 -76,6 -145,-11 -207,-57 26,100 89,182 180,249 -119,-20 -195,-44 -258,-139 -4,106 6,182 78,281 -118,-58 -182,-151 -215,-264 -22,164 -118,266 -212,297 52,-90 80,-184 60,-289 -57,105 -134,170 -243,168 59,-51 106,-117 112,-239 -78,89 -137,99 -235,97 74,-38 89,-60 139,-168 -69,67 -121,70 -192,46 99,1 325,-249 517,-434 z"
             class="fil59" /></g></g><g
         id="g2144"><rect
           style="fill:#1d3363"
           id="rect2146"
           height="536"
           width="201"
           y="7875"
           x="2498"
           class="fil55" /><g
           id="g2148"><path
             style="fill:#36569b"
             inkscape:connector-curvature="0"
             id="path2150"
             d="m 2648,7411 c -218,164 -351,316 -602,419 90,50 148,62 233,12 -5,55 -26,107 -148,203 93,0 168,19 255,-84 5,115 -1,128 -75,233 162,-19 217,-91 263,-214 31,179 143,181 272,215 -60,-94 -72,-140 -64,-207 79,115 151,102 301,100 -80,-55 -117,-99 -120,-177 107,97 143,94 248,60 -102,-42 -102,-80 -116,-137 26,28 99,22 196,-4 -135,1 -379,-218 -643,-419 z"
             class="fil56" /><path
             style="fill:#3e62b0"
             inkscape:connector-curvature="0"
             id="path2152"
             d="m 2625,7208 c 195,147 361,349 586,441 -89,34 -132,35 -209,-10 33,98 63,133 176,198 -147,-19 -206,2 -285,-90 -4,103 -25,132 62,229 -145,-57 -214,-94 -255,-204 -28,160 -155,206 -270,236 64,-87 84,-127 60,-230 -71,103 -151,114 -285,112 72,-50 95,-63 103,-183 -97,87 -164,67 -255,45 70,-37 62,-28 123,-133 -54,7 -74,3 -161,-20 121,0 373,-210 610,-391 z"
             class="fil57" /><path
             style="fill:#4d6fc1"
             inkscape:connector-curvature="0"
             id="path2154"
             d="m 2591,7067 c -170,128 -313,302 -508,382 81,6 155,-8 221,-47 -28,84 -95,153 -192,210 127,-16 207,-37 275,-117 4,89 -6,153 -83,237 126,-48 194,-127 229,-223 24,139 127,225 227,251 -56,-75 -86,-155 -65,-245 61,90 143,144 260,143 -63,-43 -113,-99 -120,-203 84,76 147,85 251,83 -79,-32 -95,-51 -148,-142 74,57 129,59 204,39 -105,0 -346,-211 -551,-368 z"
             class="fil58" /><path
             style="fill:#6480ca"
             inkscape:connector-curvature="0"
             id="path2156"
             d="m 2630,6898 c 134,128 248,303 403,382 -64,6 -123,-8 -176,-47 23,84 76,154 153,211 -100,-17 -165,-38 -219,-118 -2,89 6,153 66,237 -99,-48 -153,-127 -181,-223 -19,139 -101,225 -180,251 44,-75 68,-155 51,-244 -48,89 -113,144 -206,142 50,-43 90,-99 95,-202 -66,75 -116,84 -199,82 63,-32 75,-51 118,-142 -59,57 -103,59 -163,39 84,0 275,-211 438,-368 z"
             class="fil59" /></g></g><g
         id="g2158"><g
           id="g2162" /></g><g
         id="g2172"><g
           id="g2176" /></g><g
         id="g2186"><rect
           style="fill:#1d3363"
           id="rect2188"
           height="629"
           width="236"
           y="8100"
           x="5644"
           class="fil55" /><g
           id="g2190"><path
             style="fill:#36569b"
             inkscape:connector-curvature="0"
             id="path2192"
             d="m 5819,7555 c -255,192 -411,371 -706,492 106,58 174,72 274,13 -6,65 -30,127 -174,238 109,1 197,23 300,-97 5,135 -2,150 -88,273 190,-22 254,-107 308,-251 36,209 168,212 319,252 -70,-111 -84,-165 -75,-243 92,135 177,120 353,118 -94,-65 -138,-117 -141,-209 126,114 168,111 292,70 -120,-49 -120,-92 -137,-160 31,33 116,26 230,-4 -159,1 -444,-256 -755,-492 z"
             class="fil56" /><path
             style="fill:#3e62b0"
             inkscape:connector-curvature="0"
             id="path2194"
             d="m 5793,7317 c 229,172 423,409 687,517 -104,40 -155,42 -245,-11 38,114 74,155 206,232 -171,-22 -242,2 -334,-106 -4,121 -30,155 74,268 -171,-65 -252,-109 -300,-238 -32,188 -182,241 -317,276 75,-102 99,-149 70,-270 -82,121 -177,134 -334,132 84,-58 111,-74 121,-214 -114,102 -192,78 -299,52 81,-44 72,-32 144,-156 -64,8 -87,4 -189,-24 142,1 437,-246 716,-458 z"
             class="fil57" /><path
             style="fill:#4d6fc1"
             inkscape:connector-curvature="0"
             id="path2196"
             d="m 5752,7152 c -198,149 -366,354 -595,448 94,6 182,-10 260,-56 -33,99 -112,180 -226,247 148,-19 243,-44 323,-138 4,105 -8,180 -97,279 147,-57 226,-150 268,-262 28,163 148,264 266,295 -65,-89 -101,-183 -76,-288 72,105 168,170 305,168 -73,-51 -132,-116 -141,-238 99,89 172,99 295,97 -93,-38 -112,-60 -174,-167 87,67 151,70 240,46 -123,0 -406,-248 -648,-431 z"
             class="fil58" /><path
             style="fill:#6480ca"
             inkscape:connector-curvature="0"
             id="path2198"
             d="m 5799,6953 c 157,150 291,355 472,449 -74,6 -144,-10 -205,-56 26,99 88,180 179,247 -118,-19 -194,-44 -257,-138 -3,105 7,180 78,279 -118,-57 -181,-150 -214,-262 -22,163 -117,264 -211,294 52,-88 80,-182 61,-287 -57,105 -134,169 -242,168 58,-51 105,-117 111,-238 -78,89 -136,99 -234,97 74,-38 89,-60 138,-167 -68,67 -119,69 -190,46 98,0 322,-248 514,-432 z"
             class="fil59" /></g></g><g
         id="g2200"><rect
           style="fill:#1d3363"
           id="rect2202"
           height="573"
           width="215"
           y="8095"
           x="6312"
           class="fil55" /><g
           id="g2204"><path
             style="fill:#36569b"
             inkscape:connector-curvature="0"
             id="path2206"
             d="m 6472,7599 c -233,175 -375,337 -643,447 97,53 158,66 249,13 -6,58 -27,115 -158,216 99,1 179,21 272,-89 5,123 -1,137 -79,249 173,-20 231,-97 280,-229 33,191 153,194 290,230 -63,-101 -76,-150 -68,-221 84,123 162,109 322,107 -86,-59 -126,-107 -129,-190 115,104 153,101 266,64 -109,-45 -109,-84 -125,-146 29,30 106,24 210,-4 -145,1 -404,-232 -687,-447 z"
             class="fil56" /><path
             style="fill:#3e62b0"
             inkscape:connector-curvature="0"
             id="path2208"
             d="m 6448,7382 c 208,157 385,372 625,471 -94,36 -141,37 -223,-10 35,104 68,141 188,211 -156,-21 -220,2 -304,-97 -4,110 -27,141 67,245 -156,-60 -229,-100 -273,-218 -30,172 -165,220 -289,252 68,-93 90,-136 64,-246 -75,110 -161,122 -304,120 77,-53 101,-68 110,-195 -103,93 -175,71 -272,47 74,-39 65,-29 131,-141 -58,7 -79,3 -172,-22 129,1 398,-224 652,-417 z"
             class="fil57" /><path
             style="fill:#4d6fc1"
             inkscape:connector-curvature="0"
             id="path2210"
             d="m 6411,7231 c -181,136 -334,323 -542,408 86,6 165,-9 236,-50 -30,90 -101,164 -206,225 136,-18 222,-41 295,-126 4,95 -7,164 -89,254 135,-52 207,-137 245,-239 25,149 135,241 242,268 -59,-80 -92,-166 -70,-261 66,95 153,154 278,152 -67,-45 -120,-105 -128,-216 90,81 157,90 268,88 -84,-34 -101,-54 -158,-152 79,61 137,64 218,42 -112,0 -370,-226 -589,-393 z"
             class="fil58" /><path
             style="fill:#6480ca"
             inkscape:connector-curvature="0"
             id="path2212"
             d="m 6453,7051 c 144,136 265,323 430,408 -68,6 -131,-9 -187,-51 24,91 80,165 163,225 -107,-17 -176,-40 -234,-125 -3,95 6,164 71,253 -107,-52 -164,-136 -194,-238 -20,148 -107,240 -192,268 47,-81 73,-166 55,-261 -52,95 -122,154 -221,152 53,-46 96,-106 102,-216 -71,80 -124,90 -213,88 67,-35 81,-55 126,-152 -63,61 -109,63 -173,42 89,0 293,-226 467,-393 z"
             class="fil59" /></g></g><g
         id="g2214"><g
           id="g2218" /></g><g
         id="g2228"><g
           id="g2232" /></g><g
         id="g2242"><g
           id="g2246" /></g><g
         id="g2256"><g
           id="g2260" /></g><g
         id="g2270"><g
           id="g2274" /></g><path
         style="fill:#274687"
         inkscape:connector-curvature="0"
         id="path2284"
         d="m 1,10089 11901,0 0,-1126 C 7632,9491 4051,7476 1,8963 l 0,1126 z"
         class="fil60" /><path
         style="fill:#36569b"
         inkscape:connector-curvature="0"
         id="path2286"
         d="m 11902,9083 0,-120 C 7632,9491 4051,7476 1,8963 l 0,120 c 4050,-1487 7631,528 11901,0 z"
         class="fil56" /></g></g><g
     id="g5097"
     inkscape:export-xdpi="90"
     inkscape:export-ydpi="90"><text
       xml:space="preserve"
       style="font-size:881.63177489999998215px;font-style:normal;font-weight:normal;text-align:center;line-height:89.99999762000000203%;letter-spacing:0px;word-spacing:0px;text-anchor:middle;fill:none;fill-opacity:1;stroke:#ffa426;stroke-width:220.40794372999999950;stroke-linejoin:round;stroke-miterlimit:4;stroke-opacity:1;stroke-dasharray:none;font-family:Sans"
       x="9614.1475"
       y="4447.3174"
       id="text5008"
       sodipodi:linespacing="89.999998%"><tspan
         sodipodi:role="line"
         id="tspan5010"
         x="9614.1475"
         y="4447.3174"
         style="font-size:1763.26379395000003569px;font-style:normal;font-variant:normal;font-weight:normal;font-stretch:normal;text-align:center;line-height:89.99999762000000203%;text-anchor:middle;fill:none;fill-opacity:1;stroke:#ffa426;stroke-width:220.40794372999999950;stroke-linejoin:round;stroke-miterlimit:4;stroke-opacity:1;stroke-dasharray:none;font-family:Yard Sale;-inkscape-font-specification:Yard Sale">Nürnberger</tspan><tspan
         sodipodi:role="line"
         x="9614.1475"
         y="6034.2549"
         style="font-size:1763.26379395000003569px;font-style:normal;font-variant:normal;font-weight:normal;font-stretch:normal;text-align:center;line-height:89.99999762000000203%;text-anchor:middle;fill:none;fill-opacity:1;stroke:#ffa426;stroke-width:220.40794372999999950;stroke-linejoin:round;stroke-miterlimit:4;stroke-opacity:1;stroke-dasharray:none;font-family:Yard Sale;-inkscape-font-specification:Yard Sale"
         id="tspan5012">Lebkuchen</tspan></text>
<text
       sodipodi:linespacing="89.999998%"
       id="text5173"
       y="4447.3174"
       x="9614.1475"
       style="font-size:881.6317749px;font-style:normal;font-weight:normal;text-align:center;line-height:89.99999762%;letter-spacing:0px;word-spacing:0px;text-anchor:middle;fill:url(#linearGradient5069);fill-opacity:1;stroke:none;font-family:Sans"
       xml:space="preserve"><tspan
         style="font-size:1763.26379395px;font-style:normal;font-variant:normal;font-weight:normal;font-stretch:normal;text-align:center;line-height:89.99999762%;text-anchor:middle;fill:url(#linearGradient5069);fill-opacity:1;stroke:none;font-family:Yard Sale;-inkscape-font-specification:Yard Sale"
         y="4447.3174"
         x="9614.1475"
         id="tspan5175"
         sodipodi:role="line">Nürnberger</tspan><tspan
         id="tspan4063"
         style="font-size:1763.26379395px;font-style:normal;font-variant:normal;font-weight:normal;font-stretch:normal;text-align:center;line-height:89.99999762%;text-anchor:middle;fill:url(#linearGradient5069);fill-opacity:1;stroke:none;font-family:Yard Sale;-inkscape-font-specification:Yard Sale"
         y="6034.2549"
         x="9614.1475"
         sodipodi:role="line">Lebkuchen</tspan></text>
<g
       style="fill:#ffff00;fill-opacity:1"
       transform="translate(1577.9441,-3494.7797)"
       id="g4975"><path
         sodipodi:nodetypes="cccccccccccccccccccccccccccccccccsccccccccccccccccc"
         inkscape:connector-curvature="0"
         style="font-size:1763.26379395px;font-style:normal;font-variant:normal;font-weight:normal;font-stretch:normal;text-align:center;line-height:89.99999762%;letter-spacing:0px;word-spacing:0px;text-anchor:middle;fill:#ffff00;fill-opacity:1;stroke:none;font-family:Yard Sale;-inkscape-font-specification:Yard Sale"
         d="m 93.09375,330.71875 -0.65625,0.34375 c -1.8e-5,1.30961 0.09563,3.27915 0.25,5.875 l 0.40625,-0.21875 c 7.19998,7.84002 12.63247,13.73167 16.3125,17.625 0.47996,0.53334 1.53413,2.10542 3.1875,4.71875 1.22663,1.92 2.50121,3.31208 3.78125,4.21875 l 0.625,0.1875 c 0.15996,0 0.35829,-0.0404 0.625,-0.0937 0.31996,-0.0533 0.58996,-0.0937 0.75,-0.0937 l 0.3125,0.65625 c 0.69329,0 1.64829,-0.33792 2.875,-1.03125 1.22662,-0.69333 2.17246,-1.35083 2.8125,-1.9375 0.31995,-0.53333 0.51828,-0.97042 0.625,-1.34375 0.37329,-0.42666 1.79662,-1.3725 4.25,-2.8125 2.02661,-1.17333 3.17078,-2.31749 3.4375,-3.4375 0.37328,-1.81332 0.5625,-4.20082 0.5625,-7.1875 -2e-5,-0.73046 -0.0478,-1.71637 -0.0937,-2.75 -0.0894,1.51864 -0.24383,2.84487 -0.46875,3.9375 -0.26672,1.12001 -1.41089,2.26417 -3.4375,3.4375 -2.45338,1.44 -3.87671,2.38584 -4.25,2.8125 -0.10672,0.37333 -0.30505,0.81042 -0.625,1.34375 -0.64004,0.58667 -1.58588,1.24417 -2.8125,1.9375 -1.22671,0.69333 -2.18171,1.03125 -2.875,1.03125 l -0.3125,-0.65625 c -0.16004,0 -0.43004,0.0404 -0.75,0.0937 -0.26671,0.0533 -0.46504,0.0937 -0.625,0.0937 l -0.625,-0.1875 c -1.28004,-0.90667 -2.55462,-2.29875 -3.78125,-4.21875 -1.65337,-2.61333 -2.70754,-4.18541 -3.1875,-4.71875 -3.68003,-3.89333 -9.11252,-9.78498 -16.3125,-17.625 z m -18,15.3125 C 75.050035,348.05529 75,349.75022 75,350.8125 c 0,1.54667 0.427919,3.45667 1.28125,5.75 0.906664,2.24 1.861665,3.9425 2.875,5.0625 L 79.875,362 c 1.173329,-0.0533 2.934574,-0.96792 5.28125,-2.78125 1.653321,-1.28 3.315407,-2.60416 4.96875,-3.9375 0.586653,-0.79999 1.203732,-1.33624 1.84375,-1.65625 0.479983,-0.21333 0.768316,-0.53291 0.875,-0.90625 0.106648,-0.42666 0.156236,-1.66999 0.15625,-3.75 -7e-6,-0.71533 -0.0636,-1.63498 -0.125,-2.71875 -0.01621,0.13748 -0.01132,0.38902 -0.03125,0.46875 -0.106684,0.37334 -0.395017,0.69292 -0.875,0.90625 -0.640018,0.32001 -1.257097,0.85626 -1.84375,1.65625 -1.653343,1.33334 -3.315429,2.6575 -4.96875,3.9375 -2.346676,1.81333 -4.107921,2.72792 -5.28125,2.78125 l -0.71875,-0.375 c -1.013335,-1.12 -1.968336,-2.8225 -2.875,-5.0625 -0.639998,-1.72 -1.0275,-3.23125 -1.1875,-4.53125 z"
         transform="matrix(22.040795,0,0,22.040795,-0.6005,0)"
         id="path4840" /><path
         sodipodi:nodetypes="ccccccscccsccsccccccc"
         inkscape:connector-curvature="0"
         style="font-size:1763.26379395px;font-style:normal;font-variant:normal;font-weight:normal;font-stretch:normal;text-align:center;line-height:89.99999762%;letter-spacing:0px;word-spacing:0px;text-anchor:middle;fill:#ffff00;fill-opacity:1;stroke:none;font-family:Yard Sale;-inkscape-font-specification:Yard Sale"
         d="m 189.875,323.8125 c -0.12735,1.62289 -0.33307,2.9377 -0.65625,3.875 -0.21339,0.58669 -1.64589,3.34336 -4.3125,8.25 -3.46671,6.45335 -8.02504,11.55709 -13.625,15.34375 -2.08003,1.33333 -4.79628,2.5675 -8.15625,3.6875 -2.82669,0.85333 -5.64211,1.74958 -8.46875,2.65625 -1.60002,0.53333 -3.1721,0.78125 -4.71875,0.78125 -2.72002,0 -4.9496,-0.61709 -6.65625,-1.84375 -0.37334,-0.26667 -1.80584,-2.02792 -4.3125,-5.28125 -3.28832,-4.34058 -5.19619,-9.2079 -5.78125,-14.59375 -0.13096,0.96107 -0.21875,1.78747 -0.21875,2.4375 0,6.82668 2,12.87625 6,18.15625 2.50666,3.25333 3.93916,5.01458 4.3125,5.28125 1.70665,1.22666 3.93623,1.84375 6.65625,1.84375 1.54665,0 3.11873,-0.24792 4.71875,-0.78125 2.82664,-0.90667 5.64206,-1.80292 8.46875,-2.65625 3.35997,-1.12 6.07622,-2.35417 8.15625,-3.6875 5.59996,-3.78666 10.15829,-8.8904 13.625,-15.34375 2.66661,-4.90664 4.09911,-7.66331 4.3125,-8.25 C 189.75202,332.14086 190,329.66337 190,326.25 c -1e-5,-0.74936 -0.0353,-1.57101 -0.125,-2.4375 z"
         transform="matrix(22.040795,0,0,22.040795,-0.6005,0)"
         id="path4842" /><path
         sodipodi:nodetypes="ccccccccsccccccccscccccccscscccsccscscccccc"
         inkscape:connector-curvature="0"
         style="font-size:1763.26379395px;font-style:normal;font-variant:normal;font-weight:normal;font-stretch:normal;text-align:center;line-height:89.99999762%;letter-spacing:0px;word-spacing:0px;text-anchor:middle;fill:#ffff00;fill-opacity:1;stroke:none;font-family:Yard Sale;-inkscape-font-specification:Yard Sale"
         d="m 207.09375,335.46875 -0.375,1.5 c -0.26669,0.69335 -0.31627,1.69793 -0.15625,3.03125 0.13864,1.80259 0.16899,2.52323 0.1875,2.84375 l 0.34375,-1.375 c 0.15998,2e-5 0.24998,0.0496 0.25,0.15625 5.22664,4.48001 9.08706,7.91251 11.59375,10.3125 4.15997,3.36001 6.48871,5.31959 6.96875,5.90625 0.47996,0.53333 1.76371,0.8125 3.84375,0.8125 1.59996,0 4.54578,-1.00458 8.8125,-3.03125 3.99995,-1.86666 6.76578,-3.43874 8.3125,-4.71875 0.10661,-0.0533 0.59328,-0.37291 1.5,-0.90625 0.63994,-0.42666 1.01827,-0.76457 1.125,-1.03125 0.15994,-0.31999 0.25,-0.80665 0.25,-1.5 -3e-5,-0.59089 -0.78189,-1.57309 -2.28125,-2.90625 -0.16431,0.0944 -0.55202,0.32288 -0.59375,0.34375 -1.54672,1.28001 -4.31255,2.85209 -8.3125,4.71875 -4.26672,2.02667 -7.21254,3.03125 -8.8125,3.03125 -2.08004,0 -3.36379,-0.27917 -3.84375,-0.8125 -0.48004,-0.58666 -2.80878,-2.54624 -6.96875,-5.90625 -2.50669,-2.39999 -6.36711,-5.83249 -11.59375,-10.3125 -2e-5,-0.10665 -0.09,-0.15623 -0.25,-0.15625 z m -0.59375,9.875 c -0.23747,0.74309 -0.62696,1.37511 -1.15625,1.875 -1.92002,1.86667 -4.24877,3.77667 -6.96875,5.75 -3.62667,2.66666 -6.15375,4 -7.59375,4 -0.21334,0 -0.46125,-0.0496 -0.78125,-0.15625 -0.32,-0.10667 -0.55875,-0.15625 -0.71875,-0.15625 -0.32,0 -0.63959,0.18917 -0.90625,0.5625 -1.12,-1.49334 -1.79583,-3.115 -2.0625,-4.875 -0.0674,-0.35919 -0.11725,-0.93508 -0.15625,-1.625 -0.0411,0.74198 -0.0937,1.47718 -0.0937,2.25 0,2.72001 0.09,4.52167 0.25,5.375 0.26667,1.76 0.9425,3.38166 2.0625,4.875 0.26666,-0.37333 0.58625,-0.5625 0.90625,-0.5625 0.16,0 0.39875,0.0496 0.71875,0.15625 0.32,0.10666 0.56791,0.15625 0.78125,0.15625 1.44,0 3.96708,-1.33334 7.59375,-4 2.71998,-1.97333 5.04873,-3.88333 6.96875,-5.75 0.95998,-0.90666 1.43748,-2.23082 1.4375,-3.9375 -2e-5,-0.10666 -0.0588,-1.20124 -0.21875,-3.28125 -0.028,-0.23322 -0.0476,-0.44261 -0.0625,-0.65625 z"
         transform="matrix(22.040795,0,0,22.040795,-0.6005,0)"
         id="path4844" /><path
         sodipodi:nodetypes="cccccccccccccccccccccccccccccccccscccccccccccccccccc"
         inkscape:connector-curvature="0"
         style="font-size:1763.26379395px;font-style:normal;font-variant:normal;font-weight:normal;font-stretch:normal;text-align:center;line-height:89.99999762%;letter-spacing:0px;word-spacing:0px;text-anchor:middle;fill:#ffff00;fill-opacity:1;stroke:none;font-family:Yard Sale;-inkscape-font-specification:Yard Sale"
         d="m 264.03125,330.71875 -0.65625,0.34375 c -2e-5,1.30961 0.0956,3.27915 0.25,5.875 l 0.40625,-0.21875 c 7.19998,7.84002 12.63247,13.73167 16.3125,17.625 0.47996,0.53334 1.53413,2.10542 3.1875,4.71875 1.22663,1.92 2.50121,3.31208 3.78125,4.21875 l 0.625,0.1875 c 0.15996,0 0.35829,-0.0404 0.625,-0.0937 0.31996,-0.0533 0.58996,-0.0937 0.75,-0.0937 l 0.3125,0.65625 c 0.69329,0 1.64829,-0.33792 2.875,-1.03125 1.22662,-0.69333 2.17245,-1.35083 2.8125,-1.9375 0.31995,-0.53333 0.51828,-0.97042 0.625,-1.34375 0.37329,-0.42666 1.79662,-1.3725 4.25,-2.8125 2.02661,-1.17333 3.17078,-2.31749 3.4375,-3.4375 0.37328,-1.81332 0.5625,-4.20082 0.5625,-7.1875 -2e-5,-0.73046 -0.0478,-1.71637 -0.0937,-2.75 -0.0894,1.51864 -0.24383,2.84487 -0.46875,3.9375 -0.26672,1.12001 -1.41089,2.26417 -3.4375,3.4375 -2.45338,1.44 -3.87671,2.38584 -4.25,2.8125 -0.10672,0.37333 -0.30505,0.81042 -0.625,1.34375 -0.64005,0.58667 -1.58588,1.24417 -2.8125,1.9375 -1.22671,0.69333 -2.18171,1.03125 -2.875,1.03125 l -0.3125,-0.65625 c -0.16004,0 -0.43004,0.0404 -0.75,0.0937 -0.26671,0.0533 -0.46504,0.0937 -0.625,0.0937 l -0.625,-0.1875 c -1.28004,-0.90667 -2.55462,-2.29875 -3.78125,-4.21875 -1.65337,-2.61333 -2.70754,-4.18541 -3.1875,-4.71875 -3.68003,-3.89333 -9.11252,-9.78498 -16.3125,-17.625 z m -18,15.3125 c -0.0437,2.02404 -0.0937,3.71897 -0.0937,4.78125 0,1.54667 0.42791,3.45667 1.28125,5.75 0.90666,2.24 1.86166,3.9425 2.875,5.0625 l 0.7187,0.375 c 1.17333,-0.0533 2.93457,-0.96792 5.28125,-2.78125 1.65332,-1.28 3.3154,-2.60416 4.96875,-3.9375 0.58665,-0.79999 1.20373,-1.33624 1.84375,-1.65625 0.47998,-0.21333 0.76832,-0.53291 0.875,-0.90625 0.10665,-0.42666 0.15623,-1.66999 0.15625,-3.75 -10e-6,-0.71533 -0.0636,-1.63498 -0.125,-2.71875 -0.0162,0.13748 -0.0113,0.38902 -0.0312,0.46875 -0.10668,0.37334 -0.39502,0.69292 -0.875,0.90625 -0.64002,0.32001 -1.2571,0.85626 -1.84375,1.65625 -1.65335,1.33334 -3.31543,2.6575 -4.96875,3.9375 -2.34668,1.81333 -4.10792,2.72792 -5.28125,2.78125 l -0.71875,-0.375 c -1.01334,-1.12 -1.96834,-2.8225 -2.875,-5.0625 -0.64,-1.72 -1.0275,-3.23125 -1.1875,-4.53125 z"
         transform="matrix(22.040795,0,0,22.040795,-0.6005,0)"
         id="path4846" /><path
         sodipodi:nodetypes="cccccsccscscccccc"
         inkscape:connector-curvature="0"
         style="font-size:1763.26379395px;font-style:normal;font-variant:normal;font-weight:normal;font-stretch:normal;text-align:center;line-height:89.99999762%;letter-spacing:0px;word-spacing:0px;text-anchor:middle;fill:#ffff00;fill-opacity:1;stroke:none;font-family:Yard Sale;-inkscape-font-specification:Yard Sale"
         d="m 370.15625,340.125 c -0.13511,0.48253 -0.30624,0.98325 -0.5,1.5 -0.90673,2.40001 -1.43381,3.84168 -1.59375,4.375 -0.48006,2.02667 -1.39465,3.54917 -2.78125,4.5625 -1.54673,1.17333 -3.6863,2.59667 -6.40625,4.25 -6.40005,2.66666 -18.01253,4 -34.8125,4 -3.41335,0 -6.74668,-0.70708 -10,-2.09375 -2.5274,-1.06928 -4.25812,-2.32981 -5.25,-3.8125 -0.64893,0.84959 -0.96875,1.82263 -0.96875,2.875 0,2.88001 2.05875,5.1775 6.21875,6.9375 3.25332,1.38667 6.58665,2.09375 10,2.09375 16.79997,0 28.41245,-1.33334 34.8125,-4 2.71995,-1.65333 4.85952,-3.07667 6.40625,-4.25 1.3866,-1.01333 2.30119,-2.53583 2.78125,-4.5625 0.15994,-0.53332 0.68702,-1.97499 1.59375,-4.375 0.63993,-1.70665 0.96875,-3.22915 0.96875,-4.5625 -3e-5,-0.91019 -0.14532,-1.89793 -0.46875,-2.9375 z"
         transform="matrix(22.040795,0,0,22.040795,-0.6005,0)"
         id="path4848" /><path
         sodipodi:nodetypes="cscccccscccscccsc"
         inkscape:connector-curvature="0"
         style="font-size:1763.26379395px;font-style:normal;font-variant:normal;font-weight:normal;font-stretch:normal;text-align:center;line-height:89.99999762%;letter-spacing:0px;word-spacing:0px;text-anchor:middle;fill:#ffff00;fill-opacity:1;stroke:none;font-family:Yard Sale;-inkscape-font-specification:Yard Sale"
         d="m 368.59375,341.75 c -0.0479,0.98727 -0.0625,1.88699 -0.0625,2.59375 0,0.0709 -0.002,0.47475 0,0.59375 0.0152,-0.12691 0.0501,-0.24522 0.0625,-0.375 0.049,-0.73462 0.041,-1.6731 0,-2.8125 z M 420.5,344.96875 c -0.49202,0.39093 -1.01818,0.80269 -1.65625,1.28125 -9.81337,5.33334 -21.72336,8 -35.75,8 -6.5807,0 -11.42259,-1.9088 -14.46875,-5.71875 0.0141,0.78198 0.006,1.47847 -0.0312,2.03125 -0.10667,1.12001 -0.305,2.15584 -0.625,3.0625 2.98666,4.42667 8.03166,6.625 15.125,6.625 14.02664,0 25.93663,-2.66666 35.75,-8 1.49329,-1.11999 2.58787,-1.98499 3.28125,-2.625 -0.42672,-0.90666 -0.65625,-1.70374 -0.65625,-2.34375 -0.37843,-0.88295 -0.68149,-1.60356 -0.96875,-2.3125 z"
         transform="matrix(22.040795,0,0,22.040795,-0.6005,0)"
         id="path4850" /><path
         sodipodi:nodetypes="ccccccccsccccccccscccccccscscccsccscscccccc"
         inkscape:connector-curvature="0"
         style="font-size:1763.26379395px;font-style:normal;font-variant:normal;font-weight:normal;font-stretch:normal;text-align:center;line-height:89.99999762%;letter-spacing:0px;word-spacing:0px;text-anchor:middle;fill:#ffff00;fill-opacity:1;stroke:none;font-family:Yard Sale;-inkscape-font-specification:Yard Sale"
         d="m 440.53125,335.46875 -0.375,1.5 C 439.88957,337.6621 439.83998,338.66668 440,340 c 0.13864,1.80259 0.16899,2.52323 0.1875,2.84375 l 0.34375,-1.375 c 0.15999,2e-5 0.24998,0.0496 0.25,0.15625 5.22664,4.48001 9.08705,7.91251 11.59375,10.3125 4.15999,3.36001 6.48869,5.31959 6.96875,5.90625 0.47993,0.53333 1.7637,0.8125 3.84375,0.8125 1.59999,0 4.54578,-1.00458 8.8125,-3.03125 3.99995,-1.86666 6.76578,-3.43874 8.3125,-4.71875 0.10658,-0.0533 0.59327,-0.37291 1.5,-0.90625 0.6399,-0.42666 1.01829,-0.76457 1.125,-1.03125 0.15998,-0.31999 0.25,-0.80665 0.25,-1.5 -2e-5,-0.59089 -0.78189,-1.57309 -2.28125,-2.90625 -0.16431,0.0944 -0.55203,0.32288 -0.59375,0.34375 -1.54672,1.28001 -4.31255,2.85209 -8.3125,4.71875 -4.26672,2.02667 -7.21251,3.03125 -8.8125,3.03125 -2.08005,0 -3.36382,-0.27917 -3.84375,-0.8125 -0.48006,-0.58666 -2.80876,-2.54624 -6.96875,-5.90625 -2.5067,-2.39999 -6.36711,-5.83249 -11.59375,-10.3125 -2e-5,-0.10665 -0.09,-0.15623 -0.25,-0.15625 z m -0.59375,9.875 c -0.23747,0.74309 -0.62696,1.37511 -1.15625,1.875 -1.92001,1.86667 -4.24876,3.77667 -6.96875,5.75 -3.62667,2.66666 -6.15375,4 -7.59375,4 -0.21334,0 -0.46125,-0.0496 -0.78125,-0.15625 -0.32,-0.10667 -0.55875,-0.15625 -0.71875,-0.15625 -0.32,0 -0.63958,0.18917 -0.90625,0.5625 -1.12,-1.49334 -1.79584,-3.115 -2.0625,-4.875 -0.0673,-0.35919 -0.11725,-0.93508 -0.15625,-1.625 -0.0411,0.74198 -0.0937,1.47718 -0.0937,2.25 0,2.72001 0.09,4.52167 0.25,5.375 0.26666,1.76 0.9425,3.38166 2.0625,4.875 0.26667,-0.37333 0.58625,-0.5625 0.90625,-0.5625 0.16,0 0.39875,0.0496 0.71875,0.15625 0.32,0.10666 0.56791,0.15625 0.78125,0.15625 1.44,0 3.96708,-1.33334 7.59375,-4 2.71999,-1.97333 5.04874,-3.88333 6.96875,-5.75 0.95998,-0.90666 1.43748,-2.23082 1.4375,-3.9375 -2e-5,-0.10666 -0.0588,-1.20124 -0.21875,-3.28125 -0.028,-0.23322 -0.0476,-0.44261 -0.0625,-0.65625 z"
         transform="matrix(22.040795,0,0,22.040795,-0.6005,0)"
         id="path4852" /><path
         sodipodi:nodetypes="cccccscsccccccccccccssscccccc"
         inkscape:connector-curvature="0"
         style="font-size:1763.26379395px;font-style:normal;font-variant:normal;font-weight:normal;font-stretch:normal;text-align:center;line-height:89.99999762%;letter-spacing:0px;word-spacing:0px;text-anchor:middle;fill:#ffff00;fill-opacity:1;stroke:none;font-family:Yard Sale;-inkscape-font-specification:Yard Sale"
         d="m 543.46875,332.28125 c -1.11187,5.65717 -4.6738,11.64166 -10.71875,17.96875 -1.12006,0.85334 -2.73254,2.27667 -4.8125,4.25 l -0.71875,-0.40625 c -1.54672,1.28 -4.49256,2.47375 -8.8125,3.59375 -3.94668,1.01333 -7.14044,1.53125 -9.59375,1.53125 -0.53333,0 -1.29001,-0.0992 -2.25,-0.3125 -0.96004,-0.21334 -1.67628,-0.34375 -2.15625,-0.34375 -0.42671,0 -0.81419,0.13041 -1.1875,0.34375 -0.53337,-0.21334 -1.29005,-0.49251 -2.25,-0.8125 -0.90673,-0.16 -2.23999,-0.44834 -4,-0.875 -4.69334,-1.6 -9.08084,-5.35208 -13.1875,-11.21875 -0.58668,-0.85332 -0.82542,-1.52916 -0.71875,-2.0625 -2.27107,-3.28048 -3.59148,-6.87988 -4,-10.78125 -0.21616,1.70411 -0.26669,3.49088 -0.0937,5.34375 0.32,4.16002 1.69379,7.97085 4.09375,11.4375 -0.10667,0.53334 0.13207,1.20918 0.71875,2.0625 4.10666,5.86667 8.49416,9.61875 13.1875,11.21875 1.76001,0.42666 3.09327,0.715 4,0.875 0.95995,0.31999 1.71663,0.59916 2.25,0.8125 0.37331,-0.21334 0.76079,-0.34375 1.1875,-0.34375 0.47997,0 1.19621,0.13041 2.15625,0.34375 0.95999,0.21333 1.71667,0.3125 2.25,0.3125 2.45331,0 5.64707,-0.51792 9.59375,-1.53125 4.31994,-1.12 7.26578,-2.31375 8.8125,-3.59375 l 0.7187,0.40625 c 2.07996,-1.97333 3.69244,-3.39666 4.8125,-4.25 7.99994,-8.37332 11.67115,-16.14373 11.03125,-23.34375 -0.0133,-0.22666 -0.12249,-0.445 -0.3125,-0.625 z"
         transform="matrix(22.040795,0,0,22.040795,-0.6005,0)"
         id="path4854" /><path
         sodipodi:nodetypes="cscccccscccsccccc"
         inkscape:connector-curvature="0"
         style="font-size:1763.26379395px;font-style:normal;font-variant:normal;font-weight:normal;font-stretch:normal;text-align:center;line-height:89.99999762%;letter-spacing:0px;word-spacing:0px;text-anchor:middle;fill:#ffff00;fill-opacity:1;stroke:none;font-family:Yard Sale;-inkscape-font-specification:Yard Sale"
         d="m 541.5625,341.75 c -0.0479,0.98727 -0.0625,1.88699 -0.0625,2.59375 0,0.0709 -0.002,0.47475 0,0.59375 0.0152,-0.12691 0.0501,-0.24522 0.0625,-0.375 0.0489,-0.73462 0.0409,-1.6731 0,-2.8125 z m 51.90625,3.21875 c -0.49203,0.39093 -1.01816,0.80269 -1.65625,1.28125 -9.81335,5.33334 -21.72337,8 -35.75,8 -6.5807,0 -11.42261,-1.9088 -14.46875,-5.71875 0.0141,0.78198 0.006,1.47847 -0.0312,2.03125 -0.10667,1.12001 -0.305,2.15584 -0.625,3.0625 2.98664,4.42667 8.03165,6.625 15.125,6.625 14.02663,0 25.93665,-2.66666 35.75,-8 1.49332,-1.11999 2.5879,-1.98499 3.28125,-2.625 -0.42671,-0.90666 -0.65625,-1.70374 -0.65625,-2.34375 -0.37843,-0.88295 -0.68149,-1.60356 -0.96875,-2.3125 z"
         transform="matrix(22.040795,0,0,22.040795,-0.6005,0)"
         id="path4856" /><path
         sodipodi:nodetypes="ccccccccsccccccccscccccccscscccsccscscccccc"
         inkscape:connector-curvature="0"
         style="font-size:1763.26379395px;font-style:normal;font-variant:normal;font-weight:normal;font-stretch:normal;text-align:center;line-height:89.99999762%;letter-spacing:0px;word-spacing:0px;text-anchor:middle;fill:#ffff00;fill-opacity:1;stroke:none;font-family:Yard Sale;-inkscape-font-specification:Yard Sale"
         d="m 613.5,335.46875 -0.375,1.5 c -0.26669,0.69335 -0.31627,1.69793 -0.15625,3.03125 0.13864,1.80259 0.16898,2.52323 0.1875,2.84375 l 0.34375,-1.375 c 0.15998,2e-5 0.25,0.0496 0.25,0.15625 5.22667,4.48001 9.08703,7.91251 11.59375,10.3125 4.15997,3.36001 6.48869,5.31959 6.96875,5.90625 0.47993,0.53333 1.76374,0.8125 3.84375,0.8125 1.59999,0 4.54582,-1.00458 8.8125,-3.03125 3.99995,-1.86666 6.76578,-3.43874 8.3125,-4.71875 0.10662,-0.0533 0.59327,-0.37291 1.5,-0.90625 0.63995,-0.42666 1.01829,-0.76457 1.125,-1.03125 0.15998,-0.31999 0.25,-0.80665 0.25,-1.5 -2e-5,-0.59089 -0.78189,-1.57309 -2.28125,-2.90625 -0.16431,0.0944 -0.55202,0.32288 -0.59375,0.34375 -1.54672,1.28001 -4.31255,2.85209 -8.3125,4.71875 -4.26668,2.02667 -7.21251,3.03125 -8.8125,3.03125 -2.08001,0 -3.36382,-0.27917 -3.84375,-0.8125 -0.48006,-0.58666 -2.80878,-2.54624 -6.96875,-5.90625 -2.50672,-2.39999 -6.36708,-5.83249 -11.59375,-10.3125 0,-0.10665 -0.09,-0.15623 -0.25,-0.15625 z m -0.59375,9.875 c -0.23747,0.74309 -0.62695,1.37511 -1.15625,1.875 -1.92003,1.86667 -4.24875,3.77667 -6.96875,5.75 -3.62668,2.66666 -6.15374,4 -7.59375,4 -0.21333,0 -0.46125,-0.0496 -0.78125,-0.15625 -0.32,-0.10667 -0.55877,-0.15625 -0.71875,-0.15625 -0.32,0 -0.63961,0.18917 -0.90625,0.5625 -1.12001,-1.49334 -1.79581,-3.115 -2.0625,-4.875 -0.0673,-0.35919 -0.11725,-0.93508 -0.15625,-1.625 -0.0411,0.74198 -0.0937,1.47718 -0.0937,2.25 0,2.72001 0.09,4.52167 0.25,5.375 0.26669,1.76 0.94249,3.38166 2.0625,4.875 0.26664,-0.37333 0.58625,-0.5625 0.90625,-0.5625 0.15998,0 0.39875,0.0496 0.71875,0.15625 0.32,0.10666 0.56792,0.15625 0.78125,0.15625 1.44001,0 3.96707,-1.33334 7.59375,-4 2.72,-1.97333 5.04872,-3.88333 6.96875,-5.75 0.95999,-0.90666 1.4375,-2.23082 1.4375,-3.9375 -5e-5,-0.10666 -0.0588,-1.20124 -0.21875,-3.28125 -0.028,-0.23322 -0.0476,-0.44261 -0.0625,-0.65625 z"
         transform="matrix(22.040795,0,0,22.040795,-0.6005,0)"
         id="path4858" /><path
         sodipodi:nodetypes="csccccccsccccccccccccccccscccccccc"
         inkscape:connector-curvature="0"
         style="font-size:1763.26379395px;font-style:normal;font-variant:normal;font-weight:normal;font-stretch:normal;text-align:center;line-height:89.99999762%;letter-spacing:0px;word-spacing:0px;text-anchor:middle;fill:#ffff00;fill-opacity:1;stroke:none;font-family:Yard Sale;-inkscape-font-specification:Yard Sale"
         d="m 108.8125,413.125 c -0.013,0.65507 -0.0312,1.31498 -0.0312,1.9375 0,7.94668 0.19833,13.14042 0.625,15.59375 0.21333,1.44 0.97916,2.305 2.3125,2.625 0.56,0.64 1.09375,1.06 1.59375,1.25 -0.0431,0.004 -0.10518,0.0264 -0.125,0.0312 0.0398,0.0216 0.235,0.0638 0.625,0.0937 -0.13184,-0.011 -0.26988,-0.0801 -0.40625,-0.125 0.41333,-0.0267 1.355,-0.0312 2.875,-0.0312 0.42666,0 0.79583,0.0496 1.0625,0.15625 L 118.0625,434 c 3.83999,0.21333 6.70498,0.34375 8.625,0.34375 11.19997,0.42667 16.58288,0.66542 16.15625,0.71875 l 3.78125,-0.0937 c 1.70663,0 4.29246,-1.4325 7.8125,-4.3125 2.39995,-2.13333 4.77828,-4.23249 7.125,-6.3125 2.02661,-1.70666 3.0625,-3.59832 3.0625,-5.625 -3e-5,-1.26807 -0.33281,-2.15184 -0.96875,-2.71875 -0.49907,0.81039 -1.20459,1.59496 -2.09375,2.34375 -2.34672,2.08001 -4.72505,4.17917 -7.125,6.3125 -3.52004,2.88 -6.10587,4.3125 -7.8125,4.3125 l -3.78125,0.0937 c 0.42663,-0.0533 -4.95628,-0.29208 -16.15625,-0.71875 -1.92002,0 -4.78501,-0.13042 -8.625,-0.34375 l -0.71875,0.65625 c -0.26667,-0.10667 -0.63584,-0.15625 -1.0625,-0.15625 -1.52,0 -2.46167,0.005 -2.875,0.0312 0.13637,0.0449 0.27441,0.11401 0.40625,0.125 -0.39,-0.03 -0.58516,-0.0722 -0.625,-0.0937 0.0198,-0.005 0.0819,-0.027 0.125,-0.0312 -0.5,-0.19 -1.03375,-0.61 -1.59375,-1.25 -1.33334,-0.32 -2.09917,-1.185 -2.3125,-2.625 -0.34697,-1.99509 -0.52894,-5.9033 -0.59375,-11.53125 z"
         transform="matrix(22.040795,0,0,22.040795,-0.6005,0)"
         id="path4860" /><path
         sodipodi:nodetypes="cscccccscccsccccc"
         inkscape:connector-curvature="0"
         style="font-size:1763.26379395px;font-style:normal;font-variant:normal;font-weight:normal;font-stretch:normal;text-align:center;line-height:89.99999762%;letter-spacing:0px;word-spacing:0px;text-anchor:middle;fill:#ffff00;fill-opacity:1;stroke:none;font-family:Yard Sale;-inkscape-font-specification:Yard Sale"
         d="m 160.46875,413.75 c -0.0479,0.98727 -0.0625,1.88699 -0.0625,2.59375 0,0.0709 -0.002,0.47475 0,0.59375 0.0152,-0.12691 0.0501,-0.24522 0.0625,-0.375 0.049,-0.73462 0.041,-1.6731 0,-2.8125 z m 51.90625,3.21875 c -0.49202,0.39093 -1.01818,0.80269 -1.65625,1.28125 -9.81338,5.33334 -21.72336,8 -35.75,8 -6.58069,0 -11.42259,-1.9088 -14.46875,-5.71875 0.0141,0.78198 0.006,1.47847 -0.0312,2.03125 -0.10667,1.12001 -0.305,2.15584 -0.625,3.0625 2.98667,4.42667 8.03166,6.625 15.125,6.625 14.02664,0 25.93662,-2.66666 35.75,-8 1.49328,-1.11999 2.58786,-1.98499 3.28125,-2.625 -0.42672,-0.90666 -0.65625,-1.70374 -0.65625,-2.34375 -0.37843,-0.88295 -0.68149,-1.60356 -0.96875,-2.3125 z"
         transform="matrix(22.040795,0,0,22.040795,-0.6005,0)"
         id="path4862" /><path
         sodipodi:nodetypes="cccccsccscscccccc"
         inkscape:connector-curvature="0"
         style="font-size:1763.26379395px;font-style:normal;font-variant:normal;font-weight:normal;font-stretch:normal;text-align:center;line-height:89.99999762%;letter-spacing:0px;word-spacing:0px;text-anchor:middle;fill:#ffff00;fill-opacity:1;stroke:none;font-family:Yard Sale;-inkscape-font-specification:Yard Sale"
         d="m 278.90625,412.125 c -0.13511,0.48253 -0.30624,0.98325 -0.5,1.5 -0.90673,2.40001 -1.43381,3.84168 -1.59375,4.375 -0.48006,2.02667 -1.39464,3.54917 -2.78125,4.5625 -1.54673,1.17333 -3.68631,2.59667 -6.40625,4.25 -6.40005,2.66666 -18.01253,4 -34.8125,4 -3.41335,0 -6.74668,-0.70709 -10,-2.09375 -2.5274,-1.06928 -4.25812,-2.32981 -5.25,-3.8125 -0.64893,0.84959 -0.96875,1.82263 -0.96875,2.875 0,2.88001 2.05874,5.1775 6.21875,6.9375 3.25332,1.38666 6.58665,2.09375 10,2.09375 16.79997,0 28.41245,-1.33334 34.8125,-4 2.71994,-1.65333 4.85952,-3.07667 6.40625,-4.25 1.38661,-1.01333 2.30119,-2.53583 2.78125,-4.5625 0.15994,-0.53332 0.68702,-1.97499 1.59375,-4.375 0.63994,-1.70665 0.96875,-3.22915 0.96875,-4.5625 -3e-5,-0.91019 -0.14532,-1.89793 -0.46875,-2.9375 z"
         transform="matrix(22.040795,0,0,22.040795,-0.6005,0)"
         id="path4864" /><path
         sodipodi:nodetypes="ccccscccccccccccscccsccsccscccccsccscccc"
         inkscape:connector-curvature="0"
         style="font-size:1763.26379395px;font-style:normal;font-variant:normal;font-weight:normal;font-stretch:normal;text-align:center;line-height:89.99999762%;letter-spacing:0px;word-spacing:0px;text-anchor:middle;fill:#ffff00;fill-opacity:1;stroke:none;font-family:Yard Sale;-inkscape-font-specification:Yard Sale"
         d="m 294.15625,414 c -0.0534,0.21335 -0.0534,1.34834 0,3.375 0.0773,1.77899 0.10374,2.20172 0.125,2.71875 0.4497,0.26559 3.96279,2.98718 10.75,8.3125 5.4933,4.32 8.96621,6.5 10.40625,6.5 1.11996,0 2.36329,-0.31959 3.75,-0.90625 1.17329,-0.58667 2.36704,-1.16333 3.59375,-1.75 0.79996,-0.37333 1.50704,-0.99959 2.09375,-1.90625 0.79995,-1.12 1.41703,-1.87667 1.84375,-2.25 0.74662,-0.37333 1.55286,-0.80125 2.40625,-1.28125 0.85328,-0.53333 1.28125,-1.2 1.28125,-2 -5e-5,-1.48937 -0.54304,-2.75591 -1.625,-3.8125 -0.71768,0.39794 -1.42312,0.77404 -2.0625,1.09375 -0.42672,0.37333 -1.0438,1.13 -1.84375,2.25 -0.58671,0.90666 -1.29379,1.53292 -2.09375,1.90625 -1.22671,0.58667 -2.42046,1.16333 -3.59375,1.75 -1.38671,0.58666 -2.63004,0.90625 -3.75,0.90625 -1.44004,0 -4.91295,-2.18 -10.40625,-6.5 -6.93336,-5.43999 -10.55502,-8.24624 -10.875,-8.40625 z m -17.75,5.03125 c -0.0526,1.00859 -0.0937,2.05566 -0.0937,3.15625 0,5.12 0.85583,10.60208 2.5625,16.46875 l -0.0937,-2.96875 c 0.37333,0.53333 0.89125,0.8125 1.53125,0.8125 1.27999,0 3.23958,-0.60792 5.90625,-1.78125 0.42666,0.0533 0.99416,0.2425 1.6875,0.5625 0.74666,0.37333 1.32332,0.5625 1.75,0.5625 1.59999,0 2.83415,-1.10375 3.6875,-3.34375 0.63998,-1.70667 0.96874,-3.50833 0.96875,-5.375 -10e-6,-0.0533 -0.0496,-1.29666 -0.15625,-3.75 -0.002,-0.0666 0.002,-0.0916 0,-0.15625 -0.15045,1.12373 -0.41434,2.21945 -0.8125,3.28125 -0.85335,2.24 -2.08751,3.34375 -3.6875,3.34375 -0.42668,0 -1.00334,-0.18917 -1.75,-0.5625 -0.69334,-0.32 -1.26084,-0.50917 -1.6875,-0.5625 -2.66667,1.17333 -4.62626,1.78125 -5.90625,1.78125 -0.64,0 -1.15792,-0.27917 -1.53125,-0.8125 l 0.0937,2.96875 c -1.3951,-4.79565 -2.21406,-9.32828 -2.46875,-13.625 z"
         transform="matrix(22.040795,0,0,22.040795,-0.6005,0)"
         id="path4866" /><path
         sodipodi:nodetypes="ccccccscccsccsccccccc"
         inkscape:connector-curvature="0"
         style="font-size:1763.26379395px;font-style:normal;font-variant:normal;font-weight:normal;font-stretch:normal;text-align:center;line-height:89.99999762%;letter-spacing:0px;word-spacing:0px;text-anchor:middle;fill:#ffff00;fill-opacity:1;stroke:none;font-family:Yard Sale;-inkscape-font-specification:Yard Sale"
         d="m 384.71875,395.8125 c -0.12735,1.62289 -0.33307,2.9377 -0.65625,3.875 -0.21339,0.58669 -1.64589,3.34335 -4.3125,8.25 -3.46671,6.45335 -8.02504,11.55709 -13.625,15.34375 -2.08004,1.33334 -4.79628,2.5675 -8.15625,3.6875 -2.82669,0.85333 -5.64211,1.74958 -8.46875,2.65625 -1.60002,0.53333 -3.1721,0.78125 -4.71875,0.78125 -2.72001,0 -4.94959,-0.61708 -6.65625,-1.84375 -0.37334,-0.26666 -1.80584,-2.02791 -4.3125,-5.28125 -3.28832,-4.34058 -5.19619,-9.2079 -5.78125,-14.59375 -0.13096,0.96107 -0.21875,1.78747 -0.21875,2.4375 0,6.82668 2,12.87626 6,18.15625 2.50666,3.25334 3.93916,5.01459 4.3125,5.28125 1.70666,1.22667 3.93624,1.84375 6.65625,1.84375 1.54665,0 3.11873,-0.24792 4.71875,-0.78125 2.82664,-0.90667 5.64206,-1.80292 8.46875,-2.65625 3.35997,-1.12 6.07621,-2.35416 8.15625,-3.6875 5.59996,-3.78666 10.15829,-8.8904 13.625,-15.34375 2.66661,-4.90665 4.09911,-7.66331 4.3125,-8.25 0.53327,-1.54664 0.78125,-4.02414 0.78125,-7.4375 -10e-6,-0.74936 -0.0353,-1.57101 -0.125,-2.4375 z"
         transform="matrix(22.040795,0,0,22.040795,-0.6005,0)"
         id="path4868" /><path
         sodipodi:nodetypes="cccccccsccccsccccccccc"
         inkscape:connector-curvature="0"
         style="font-size:1763.26379395px;font-style:normal;font-variant:normal;font-weight:normal;font-stretch:normal;text-align:center;line-height:89.99999762%;letter-spacing:0px;word-spacing:0px;text-anchor:middle;fill:#ffff00;fill-opacity:1;stroke:none;font-family:Yard Sale;-inkscape-font-specification:Yard Sale"
         d="m 449.25,411.375 c -0.24953,0.38781 -0.50051,0.68786 -0.75,0.875 l -1.03125,0 c -2.18673,2.93335 -3.89839,4.93334 -5.125,6 -1.17339,1.01334 -3.32214,2.44584 -6.46875,4.3125 -0.42672,0.26667 -1.09339,0.59542 -2,0.96875 -2.29338,2.24 -6.04546,4.14083 -11.21875,5.6875 -4.64003,1.38666 -8.79795,2.0625 -12.53125,2.0625 -6.29335,0 -12.09501,-1.44167 -17.375,-4.375 -5.54065,-3.05512 -9.5017,-7.23277 -11.875,-12.5 -0.0768,1.84106 -0.15882,3.67336 -0.21875,5.53125 2.34667,5.49334 6.38708,9.82208 12.09375,12.96875 5.27999,2.93333 11.08165,4.375 17.375,4.375 3.7333,0 7.89122,-0.67584 12.53125,-2.0625 5.17329,-1.54667 8.92537,-3.4475 11.21875,-5.6875 0.90661,-0.37333 1.57328,-0.70208 2,-0.96875 3.14661,-1.86666 5.29536,-3.29916 6.46875,-4.3125 1.22661,-1.06666 2.93827,-3.06665 5.125,-6 l 1.03125,0 c 0.4266,-0.31998 0.85451,-0.93707 1.28125,-1.84375 0.4266,-0.90665 0.65625,-1.63207 0.65625,-2.21875 -4e-5,-0.76071 -0.40626,-1.70456 -1.1875,-2.8125 z"
         transform="matrix(22.040795,0,0,22.040795,-0.6005,0)"
         id="path4870" /><path
         sodipodi:nodetypes="cccccccscsccscscsccccccccccccsccccsccccccccc"
         inkscape:connector-curvature="0"
         style="font-size:1763.26379395px;font-style:normal;font-variant:normal;font-weight:normal;font-stretch:normal;text-align:center;line-height:89.99999762%;letter-spacing:0px;word-spacing:0px;text-anchor:middle;fill:#ffff00;fill-opacity:1;stroke:none;font-family:Yard Sale;-inkscape-font-specification:Yard Sale"
         d="m 507.96875,413.375 c 0,0.57161 0.0911,1.4691 0.21875,2.59375 0.0758,-0.851 0.15776,-1.7005 0.28125,-2.75 1.39543,-11.452 -0.44784,-10.77955 -0.5,0.15625 z m -19.03125,-6.96875 c -4.53337,0.42669 -11.29002,1.32294 -20.25,2.65625 -0.21333,3.14668 -0.65044,8.43959 -1.34375,15.90625 -0.10671,0.96 -0.63376,1.67625 -1.59375,2.15625 -0.32,0.16 -1.22547,0.44833 -2.71875,0.875 -6.02669,1.65333 -9.11208,2.5 -9.21875,2.5 -2.50666,0 -4.12833,-2.22959 -4.875,-6.65625 -0.22845,-1.33261 -0.37214,-3.33141 -0.4375,-5.96875 -0.0186,0.8609 -0.0312,1.72367 -0.0312,2.53125 0,4.42668 0.14875,7.57084 0.46875,9.4375 0.74667,4.42666 2.36834,6.65625 4.875,6.65625 0.10667,0 3.19206,-0.84667 9.21875,-2.5 1.49328,-0.42667 2.39875,-0.715 2.71875,-0.875 0.95999,-0.48 1.48704,-1.19625 1.59375,-2.15625 0.69331,-7.46666 1.13042,-12.75957 1.34375,-15.90625 8.95998,-1.33331 15.71663,-2.22956 20.25,-2.65625 0.0149,0.14177 0.0184,0.29364 0.0312,0.4375 0.0784,-1.29379 0.12498,-2.3799 0.125,-3.21875 0,-1.11998 -0.0496,-2.2054 -0.15625,-3.21875 z m 19.1875,15.03125 c -0.0853,0.2149 -0.19468,0.40048 -0.3125,0.5625 -0.6934,0.96 -1.12132,1.62667 -1.28125,2 l -1.28125,0 c -0.96008,0.96 -2.58175,2.005 -4.875,3.125 -2.29338,1.17333 -3.87466,2.20916 -4.78125,3.0625 -1.65339,1.6 -2.97755,2.375 -3.9375,2.375 -0.74671,0 -1.42255,-0.23876 -2.0625,-0.71875 -0.60458,-1.32246 -1.01126,-3.11115 -1.1875,-5.34375 -0.0708,1.20772 -0.0937,2.23424 -0.0937,3.03125 -5e-5,3.68 0.42788,6.44583 1.28125,8.3125 0.63995,0.47999 1.31579,0.71875 2.0625,0.71875 0.95995,0 2.28411,-0.775 3.9375,-2.375 0.90659,-0.85334 2.48787,-1.88917 4.78125,-3.0625 2.29325,-1.12 3.91492,-2.165 4.875,-3.125 l 1.28125,0 c 0.15993,-0.37333 0.58785,-1.04 1.28125,-2 0.42662,-0.58666 0.65625,-1.50125 0.65625,-2.78125 -5e-5,-0.64 -0.0901,-1.59499 -0.25,-2.875 -0.0414,-0.3451 -0.063,-0.6076 -0.0937,-0.90625 z"
         transform="matrix(22.040795,0,0,22.040795,-0.6005,0)"
         id="path4872" /><path
         sodipodi:nodetypes="cscccccscccsccccc"
         inkscape:connector-curvature="0"
         style="font-size:1763.26379395px;font-style:normal;font-variant:normal;font-weight:normal;font-stretch:normal;text-align:center;line-height:89.99999762%;letter-spacing:0px;word-spacing:0px;text-anchor:middle;fill:#ffff00;fill-opacity:1;stroke:none;font-family:Yard Sale;-inkscape-font-specification:Yard Sale"
         d="m 509.6875,413.75 c -0.0479,0.98727 -0.0625,1.88699 -0.0625,2.59375 0,0.0709 -0.002,0.47475 0,0.59375 0.0152,-0.12691 0.0501,-0.24522 0.0625,-0.375 0.0489,-0.73462 0.041,-1.6731 0,-2.8125 z m 51.90625,3.21875 c -0.49203,0.39093 -1.01816,0.80269 -1.65625,1.28125 -9.81335,5.33334 -21.72337,8 -35.75,8 -6.5807,0 -11.42261,-1.9088 -14.46875,-5.71875 0.0141,0.78198 0.006,1.47847 -0.0312,2.03125 -0.10667,1.12001 -0.305,2.15584 -0.625,3.0625 2.98664,4.42667 8.03165,6.625 15.125,6.625 14.02663,0 25.93665,-2.66666 35.75,-8 1.49332,-1.11999 2.5879,-1.98499 3.28125,-2.625 -0.42671,-0.90666 -0.65625,-1.70374 -0.65625,-2.34375 -0.37843,-0.88295 -0.68149,-1.60356 -0.96875,-2.3125 z"
         transform="matrix(22.040795,0,0,22.040795,-0.6005,0)"
         id="path4874" /><path
         sodipodi:nodetypes="cccccccccccccccccccccccccccccccccscccccccscccccccccc"
         inkscape:connector-curvature="0"
         style="font-size:1763.26379395px;font-style:normal;font-variant:normal;font-weight:normal;font-stretch:normal;text-align:center;line-height:89.99999762%;letter-spacing:0px;word-spacing:0px;text-anchor:middle;fill:#ffff00;fill-opacity:1;stroke:none;font-family:Yard Sale;-inkscape-font-specification:Yard Sale"
         d="m 579.8125,402.71875 -0.65625,0.34375 c 0,1.30961 0.0956,3.27915 0.25,5.875 l 0.40625,-0.21875 c 7.19997,7.84002 12.63251,13.73167 16.3125,17.625 0.47997,0.53334 1.53411,2.10542 3.1875,4.71875 1.22663,1.92 2.50121,3.31208 3.78125,4.21875 l 0.625,0.1875 c 0.15998,0 0.35827,-0.0404 0.625,-0.0937 0.31995,-0.0533 0.58998,-0.0937 0.75,-0.0937 l 0.3125,0.65625 c 0.69331,0 1.64827,-0.33792 2.875,-1.03125 1.22659,-0.69334 2.17246,-1.35084 2.8125,-1.9375 0.31995,-0.53333 0.51829,-0.97042 0.625,-1.34375 0.37326,-0.42667 1.79659,-1.3725 4.25,-2.8125 2.02661,-1.17333 3.17077,-2.3175 3.4375,-3.4375 0.37326,-1.81332 0.5625,-4.20082 0.5625,-7.1875 -2e-5,-0.73046 -0.0478,-1.71636 -0.0937,-2.75 -0.0894,1.51864 -0.24384,2.84487 -0.46875,3.9375 -0.26673,1.12 -1.41089,2.26417 -3.4375,3.4375 -2.45341,1.44 -3.87674,2.38583 -4.25,2.8125 -0.10671,0.37333 -0.30505,0.81042 -0.625,1.34375 -0.64004,0.58666 -1.58591,1.24416 -2.8125,1.9375 -1.22673,0.69333 -2.18169,1.03125 -2.875,1.03125 l -0.3125,-0.65625 c -0.16002,0 -0.43005,0.0404 -0.75,0.0937 -0.26673,0.0533 -0.46502,0.0937 -0.625,0.0937 l -0.625,-0.1875 c -1.28004,-0.90667 -2.55462,-2.29875 -3.78125,-4.21875 -1.65339,-2.61333 -2.70753,-4.18541 -3.1875,-4.71875 -3.67999,-3.89333 -9.11253,-9.78498 -16.3125,-17.625 z m -18,15.3125 c -0.0437,2.02403 -0.0937,3.71897 -0.0937,4.78125 0,1.54667 0.42792,3.45667 1.28125,5.75 0.90668,2.24 1.86165,3.9425 2.875,5.0625 L 566.5938,434 c 1.17332,-0.0533 2.9346,-0.96792 5.28125,-2.78125 1.65334,-1.28 3.31541,-2.60416 4.96875,-3.9375 0.58664,-0.79999 1.20371,-1.33624 1.84375,-1.65625 0.47997,-0.21333 0.76829,-0.53291 0.875,-0.90625 0.10662,-0.42666 0.15625,-1.66999 0.15625,-3.75 0,-0.71533 -0.0636,-1.63498 -0.125,-2.71875 -0.0162,0.13748 -0.0113,0.38902 -0.0312,0.46875 -0.10671,0.37334 -0.39503,0.69292 -0.875,0.90625 -0.64004,0.32001 -1.25711,0.85626 -1.84375,1.65625 -1.65334,1.33334 -3.31541,2.6575 -4.96875,3.9375 -2.34665,1.81333 -4.10793,2.72791 -5.28125,2.78125 l -0.71875,-0.375 c -1.01335,-1.12 -1.96832,-2.8225 -2.875,-5.0625 -0.64,-1.72 -1.0275,-3.23125 -1.1875,-4.53125 z"
         transform="matrix(22.040795,0,0,22.040795,-0.6005,0)"
         id="path4876" /></g></g><path
     style="font-size:881.63177489999986847px;font-style:normal;font-variant:normal;font-weight:normal;font-stretch:normal;text-indent:0;text-align:center;text-decoration:none;line-height:89.99999762000000203%;letter-spacing:0px;word-spacing:0px;text-transform:none;direction:ltr;block-progression:tb;writing-mode:lr-tb;text-anchor:middle;baseline-shift:baseline;color:#000000;fill:none;stroke:#ffffff;stroke-width:88.16317999999999699;stroke-miterlimit:4;stroke-opacity:1;stroke-dasharray:none;marker:none;visibility:visible;display:inline;overflow:visible;enable-background:accumulate;font-family:Sans;-inkscape-font-specification:Sans;stroke-linejoin:round"
     d="m 13169.754,4643.6533 c -262.875,63.726 -45.625,-86.8862 -415.265,-78.231 l -293.781,132.3895 c -328.822,-35.8375 -339.359,687.5592 -320.536,181.5004 -0.579,-206.0782 -266.031,-351.2557 -423.999,-214.8124 -181.916,79.4362 -382.378,199.1227 -387.601,274.1211 -291.238,-364.0362 -850.442,-311.2189 -1179.399,-31.7147 m 0,0 c -201.7169,-479.3026 -307.1467,-399.5666 -772.8472,-136.4831 -525.4374,-146.1845 -312.625,-151.3328 -937.5014,56.4095 -174.8581,214.1388 -360.3678,-175.9301 -259.2212,-243.5529 -198.9243,-75.3411 -440.3743,122.7825 -440.3743,122.7825 -522.887,53.1774 -209.3076,-76.2053 -568.761,-65.25 -393.2056,74.7521 -1441.0913,-33.7924 -1277.8044,10.5989 -396.4969,-148.7952 -579.2745,7.1499 -728.5076,132.8697 M 10062.28,4178.3363 c 859.715,428.0261 1229.909,-520.7773 1916.418,-537.5828 l 1829.994,-162.0272 c 602.366,-41.2521 934.041,433.7493 1505.8,210.9364 224.113,-227.8253 451.15,159.5452 729.158,-78.1646 90.298,-412.5572 -415.629,-704.3022 -778.182,-593.8566 -346.742,187.8958 -595.314,35.7673 -965.924,44.1701 -664.399,24.1021 -451.304,-116.5859 -736.187,135.7483 -295.068,-44.2725 -723.284,-261.6791 -1070.216,-39.3142 -95.414,454.2301 -1446.275,-698.6977 -482.418,-42.4269 -297.423,-204.9442 -690.898,-102.4941 -987.551,54.3968 -322.155,-198.1118 -1480.0907,-100.3843 -1117.592,-96.5626 -604.6428,216.6765 397.3,237.9849 -609.2301,-8.4332 -423.6143,-44.4555 -755.6184,131.0352 -1090.9499,-81.6304 -342.137,37.1009 -399.7506,656.8939 -655.2114,206.3634 -428.1295,-334.1384 -382.1424,146.5416 -601.7952,-4.0179 -306.1757,-306.3911 -806.1192,-182.6421 -1136.3121,24.875 -86.2389,-161.8984 -369.7104,-424.2466 -307.4251,-572.2161 -228.4178,-86.0926 -753.3607,-101.8589 -573.7209,64.8006 -454.1192,33.7774 -270.5715,297.8355 -493.1143,280.1974 -342.6773,34.9567 -398.8448,663.4789 -655.2179,206.358 -206.9557,-293.7334 -708.5327,522.3242 -662.694,245.9856 -5.7796,81.4255 -61.1845,218.2283 10.104,228.4188 1442.019,206.1311 5310.4745,545.6885 6932.2669,513.9821 z m 2355.564,-982.9301 -3.782,3.7813 z M 5164.1559,4784.2808 c -384.0701,72.3137 -546.9729,764.1073 -287.6835,708.0999 -76.5245,-8.8372 -490.3781,27.9872 -273.1301,-66.0679 -19.951,-260.4293 172.7589,-761.1895 -228.9376,-800.7498 -156.0619,-54.9586 -239.0751,137.8813 -191.2149,66.091 -202.3562,70.1057 -349.9758,239.0373 -334.6167,460.9027 -135.2258,690.2794 7882.2169,1362.8036 11542.8369,283.2398 -41.115,-259.2953 121.6,-574.9493 -22.67,-798.3481 -226.685,-184.2645 -529.705,80.9787 -617.597,298.4156 -613.672,-169.0956 100.439,-554.0752 -736.531,-256.4098 -275.631,-55.2271 -564.374,-22.4785 -844.858,-35.8009 m -2278.598,-89.8091 c 6.627,2.7378 6.801,2.0486 0,0 z m -6750.6872,122.8433 -0.375,0.031 z m 7698.6872,48.4063 -1.187,0.75 z m 2098.813,49.9687 c 12.857,-0.061 1.583,0.3193 0,0 z"
     id="text5076"
     inkscape:connector-curvature="0"
     sodipodi:nodetypes="cccccccccccccccccccccccccccccccccccccsccccccccccccccccccccccccc" /></svg>